<svg width="40" height="40" viewBox="0 0 40 40" fill="none" xmlns="http://www.w3.org/2000/svg">
<path fill-rule="evenodd" clip-rule="evenodd" d="M10.3333 19.3335C9.3905 19.3335 8.9191 19.3335 8.62621 19.6263C8.33331 19.9192 8.33331 20.3906 8.33331 21.3335V33.0001C8.33331 33.9429 8.33331 34.4143 8.62621 34.7072C8.9191 35.0001 9.3905 35.0001 10.3333 35.0001H29.6666C30.6095 35.0001 31.0809 35.0001 31.3738 34.7072C31.6666 34.4143 31.6666 33.9429 31.6666 33.0001V21.3335C31.6666 20.3906 31.6666 19.9192 31.3738 19.6263C31.0809 19.3335 30.6095 19.3335 29.6666 19.3335H29.0263L28.9973 19.3335C28.8562 19.3336 28.6794 19.3337 28.5224 19.3162C28.3295 19.2947 28.0751 19.2393 27.8254 19.0663C27.719 18.9926 27.6324 18.9106 27.5611 18.8273C27.4775 18.7295 27.3099 18.7297 27.2248 18.8262C26.9262 19.1643 26.55 19.2655 26.2854 19.3026C26.0634 19.3338 25.8019 19.3336 25.5771 19.3335L25.5339 19.3335H21.7161L21.6804 19.3335C21.5028 19.3336 21.287 19.3337 21.0991 19.3098C20.8704 19.2807 20.5605 19.2038 20.282 18.958C20.1327 18.8262 19.8673 18.8262 19.718 18.958C19.4394 19.2038 19.1296 19.2807 18.9008 19.3098C18.713 19.3337 18.4972 19.3336 18.3195 19.3335L18.2839 19.3335H14.4661L14.4229 19.3335C14.1981 19.3336 13.9365 19.3338 13.7145 19.3026C13.4499 19.2655 13.0737 19.1643 12.7752 18.8262C12.69 18.7297 12.5225 18.7295 12.4388 18.8273C12.3676 18.9106 12.2809 18.9926 12.1745 19.0663C11.9249 19.2393 11.6705 19.2947 11.4776 19.3162C11.3206 19.3337 11.1437 19.3336 11.0027 19.3335L10.9736 19.3335H10.3333ZM8.55498 16.7809C8.42994 17.0238 8.36743 17.1453 8.40165 17.4464C8.42708 17.6702 8.65284 18.0402 8.84019 18.1653C9.09224 18.3335 9.36708 18.3335 9.91676 18.3335H10.9736C11.3089 18.3335 11.4765 18.3335 11.6049 18.2444C11.7334 18.1554 11.7923 17.9984 11.91 17.6846L12.655 15.6979L13.5535 13.3019L13.5538 13.3012L13.5702 13.2572C13.6204 13.1233 13.4638 13.0022 13.3474 13.0853L10.0084 15.4703L10.0084 15.4703C9.18721 16.0569 8.77664 16.3501 8.55498 16.7809ZM14.655 12.1513C14.432 12.3106 14.3206 12.3902 14.2478 12.4708C14.1487 12.5806 14.0971 12.6673 14.0477 12.8067C14.0114 12.909 13.9929 13.0567 13.956 13.3522L13.9501 13.3988L13.95 13.3996L13.6326 15.9388L13.4738 17.2094C13.4083 17.7333 13.3756 17.9953 13.5249 18.1644C13.6741 18.3335 13.9381 18.3335 14.4661 18.3335H18.2839C18.7042 18.3335 18.9144 18.3335 19.0562 18.2083C19.1979 18.0831 19.224 17.8746 19.2761 17.4575L19.4961 15.6979L19.7896 13.3499L19.7952 13.3048L19.8015 13.2544C19.875 12.6668 19.9117 12.373 20 12.373C20.0883 12.373 20.125 12.6668 20.1984 13.2544L20.2047 13.3048L20.2104 13.3499L20.5039 15.6979L20.7238 17.4575C20.776 17.8746 20.802 18.0831 20.9438 18.2083C21.0856 18.3335 21.2958 18.3335 21.7161 18.3335H25.5339C26.0618 18.3335 26.3258 18.3335 26.4751 18.1644C26.6244 17.9953 26.5916 17.7333 26.5261 17.2094L26.3673 15.9388L26.0499 13.3996L26.0498 13.3988L26.044 13.3522C26.0071 13.0567 25.9886 12.909 25.9523 12.8067C25.9029 12.6673 25.8512 12.5806 25.7521 12.4708C25.6794 12.3902 25.5679 12.3106 25.345 12.1513L22.3249 9.99413C21.2023 9.19222 20.6409 8.79126 20 8.79126C19.3591 8.79126 18.7977 9.19222 17.675 9.99413L14.655 12.1513ZM26.4297 13.2571C26.3795 13.1233 26.5361 13.0021 26.6524 13.0852L29.9916 15.4703C30.8127 16.0569 31.2233 16.3501 31.445 16.7809C31.57 17.0238 31.6325 17.1453 31.5983 17.4464C31.5729 17.6702 31.3471 18.0402 31.1598 18.1653C30.9077 18.3335 30.6329 18.3335 30.0832 18.3335H29.0263C28.6911 18.3335 28.5235 18.3335 28.395 18.2444C28.2665 18.1554 28.2077 17.9984 28.09 17.6846L27.345 15.6979L26.4465 13.3019L26.4462 13.3012L26.4297 13.2572L26.4297 13.2571Z" fill="#595959"/>
<path d="M7.9546 6.51493C8.13649 5.78737 8.22744 5.42359 8.4987 5.21179C8.76996 5 9.14493 5 9.89489 5H30.1051C30.8551 5 31.23 5 31.5013 5.21179C31.7726 5.42359 31.8635 5.78737 32.0454 6.51493L34.8447 17.7121C34.9162 17.998 34.9519 18.141 34.8769 18.2372C34.8018 18.3333 34.6544 18.3333 34.3596 18.3333H29.0774C28.719 18.3333 28.5397 18.3333 28.4069 18.2345C28.274 18.1356 28.2225 17.964 28.1195 17.6207L26.4308 11.9915C26.2142 11.2697 26.106 10.9088 26.0169 10.9264C25.9277 10.9441 25.9652 11.319 26.0402 12.0689L26.5567 17.2338C26.6081 17.7475 26.6338 18.0043 26.4849 18.1688C26.336 18.3333 26.0779 18.3333 25.5617 18.3333H21.7383C21.3082 18.3333 21.0932 18.3333 20.9503 18.2041C20.8075 18.0748 20.7861 17.8608 20.7433 17.4328L20.199 11.9901C20.1267 11.2667 20.0905 10.905 20 10.905C19.9095 10.905 19.8733 11.2667 19.801 11.9901L19.2567 17.4328C19.2139 17.8608 19.1925 18.0748 19.0497 18.2041C18.9068 18.3333 18.6918 18.3333 18.2617 18.3333H14.4383C13.9221 18.3333 13.664 18.3333 13.5151 18.1688C13.3662 18.0043 13.3919 17.7475 13.4433 17.2338L13.9598 12.0689C14.0348 11.319 14.0723 10.9441 13.9831 10.9264C13.894 10.9088 13.7858 11.2697 13.5692 11.9915L11.8805 17.6207C11.7775 17.964 11.726 18.1356 11.5931 18.2345C11.4603 18.3333 11.281 18.3333 10.9226 18.3333H5.64039C5.3456 18.3333 5.19821 18.3333 5.12314 18.2372C5.04807 18.141 5.08382 17.998 5.15532 17.7121L7.9546 6.51493Z" fill="#6BCB77"/>
<path d="M22.1666 25H17.8333C16.7287 25 15.8333 25.8954 15.8333 27V34.85C15.8333 34.9328 15.9005 35 15.9833 35H24.0166C24.0995 35 24.1666 34.9328 24.1666 34.85V27C24.1666 25.8954 23.2712 25 22.1666 25Z" fill="#6BCB77"/>
</svg>
