<svg width="40" height="40" viewBox="0 0 40 40" fill="none" xmlns="http://www.w3.org/2000/svg">
<path fill-rule="evenodd" clip-rule="evenodd" d="M8.79075 16.877C8.33331 17.8715 8.33331 19.003 8.33331 21.2659V28.3332C8.33331 31.4759 8.33331 33.0473 9.30962 34.0236C10.2685 34.9825 11.8014 34.9996 14.8333 34.9999V26.6667C14.8333 25.1939 16.0272 24 17.5 24H22.5C23.9727 24 25.1666 25.1939 25.1666 26.6667V34.9999C28.1985 34.9996 29.7314 34.9825 30.6903 34.0236C31.6666 33.0473 31.6666 31.4759 31.6666 28.3332V21.2659C31.6666 19.003 31.6666 17.8715 31.2092 16.877C30.7518 15.8824 29.8927 15.146 28.1746 13.6733L26.5079 12.2448C23.4024 9.58289 21.8496 8.25195 20 8.25195C18.1504 8.25195 16.5976 9.58289 13.4921 12.2448L13.4921 12.2448L11.8254 13.6733C10.1073 15.146 9.24818 15.8824 8.79075 16.877ZM23.1666 34.9999V26.6667C23.1666 26.2985 22.8682 26 22.5 26H17.5C17.1318 26 16.8333 26.2985 16.8333 26.6667V34.9999H23.1666Z" fill="#6BCB77"/>
</svg>
