<svg width="16" height="16" viewBox="0 0 16 16" fill="none" xmlns="http://www.w3.org/2000/svg">
<path d="M2.9546 3.51493C3.13649 2.78737 3.22744 2.42359 3.4987 2.21179C3.76996 2 4.14493 2 4.89489 2H11.1051C11.8551 2 12.23 2 12.5013 2.21179C12.7726 2.42359 12.8635 2.78737 13.0454 3.51493L13.7216 6.21959C13.863 6.78531 13.4259 7.33333 12.8427 7.33333C11.9787 7.33333 11.2292 6.70866 11.0872 5.85638C11.0708 5.75792 10.9292 5.75792 10.9128 5.85638L10.8585 6.18254C10.7478 6.84661 10.1732 7.33333 9.5 7.33333C8.82677 7.33333 8.25221 6.84661 8.14153 6.18254L8.08717 5.85638C8.07076 5.75792 7.92924 5.75792 7.91283 5.85638L7.85847 6.18254C7.74779 6.84661 7.17323 7.33333 6.5 7.33333C5.82677 7.33333 5.25221 6.84661 5.14153 6.18254L5.08717 5.85638C5.07076 5.75792 4.92924 5.75792 4.91283 5.85638C4.77078 6.70866 4.02131 7.33333 3.15727 7.33333C2.57414 7.33333 2.137 6.78532 2.27844 6.21959L2.9546 3.51493Z" fill="#6BCB77"/>
<path fill-rule="evenodd" clip-rule="evenodd" d="M3.37024 8.82641C3.33331 9.31511 3.33331 9.91621 3.33331 10.6666V12.6666C3.33331 13.6094 3.33331 14.0809 3.62621 14.3737C3.9191 14.6666 4.3905 14.6666 5.33331 14.6666H6.66665V12.3333C6.66665 11.781 7.11436 11.3333 7.66665 11.3333H8.33331C8.8856 11.3333 9.33331 11.781 9.33331 12.3333V14.6666H10.6666C11.6095 14.6666 12.0809 14.6666 12.3738 14.3737C12.6666 14.0809 12.6666 13.6094 12.6666 12.6666V10.6666C12.6666 9.91621 12.6666 9.31511 12.6297 8.82641C12.0809 8.79078 11.5616 8.61849 11.1117 8.3396C10.6492 8.6526 10.0929 8.8333 9.49998 8.8333C8.95405 8.8333 8.43918 8.68011 7.99998 8.4115C7.56078 8.68011 7.04591 8.8333 6.49998 8.8333C5.90706 8.8333 5.35077 8.6526 4.88827 8.3396C4.43837 8.61849 3.9191 8.79078 3.37024 8.82641Z" fill="#6BCB77"/>
</svg>
