<svg width="40" height="40" viewBox="0 0 40 40" fill="none" xmlns="http://www.w3.org/2000/svg">
<g filter="url(#filter0_d_10_316)">
<path d="M22.2688 14.5008C25.767 7.37886 29.1924 7.217 30.4677 8.02631C32.9821 9.10538 31.6481 13.2868 31.0144 15.445C28.7963 22.9985 23.4987 30.8219 17.4862 32.0358C13.0681 32.9279 7.31324 32.342 6.35667 27.8908C5.53718 24.0775 8.7406 21.5148 11.7469 20.8404C14.7532 20.166 18.7706 21.6227 22.2688 14.5008Z" fill="#A33795"/>
<path fill-rule="evenodd" clip-rule="evenodd" d="M30.4677 8.02631C32.8969 9.06882 31.7341 13.0071 31.081 15.2189C31.0581 15.2964 31.0358 15.3719 31.0144 15.445C28.7963 22.9986 23.4987 30.8219 17.4862 32.0358C13.0681 32.9279 7.31323 32.342 6.35666 27.8908C5.53718 24.0775 8.74059 21.5148 11.7469 20.8404C12.3598 20.7029 13.0147 20.654 13.6986 20.6029C16.3696 20.4034 19.4838 20.1708 22.2688 14.5008C25.767 7.37886 29.1923 7.217 30.4677 8.02631ZM26.7887 7.56564C28.422 6.63314 29.9058 6.71783 30.8558 7.28667C32.5866 8.06751 32.8548 9.88729 32.753 11.3874C32.6547 12.8359 32.1953 14.3896 31.8836 15.4437C31.8594 15.5255 31.8361 15.6043 31.8139 15.6798C30.6789 19.545 28.756 23.4845 26.3331 26.6266C23.9232 29.7519 20.9389 32.1889 17.6511 32.8527C15.3585 33.3156 12.6743 33.4071 10.3985 32.7695C8.10328 32.1264 6.10664 30.6937 5.54193 28.0659C5.06913 25.8659 5.76785 24.0068 6.99583 22.6331C8.2037 21.282 9.91986 20.3962 11.5645 20.0273C12.243 19.875 12.9739 19.8208 13.6603 19.7699C13.8092 19.7588 13.9559 19.7479 14.0996 19.7362C14.9384 19.6679 15.7489 19.5702 16.5581 19.2984C18.1172 18.7748 19.8453 17.5447 21.5208 14.1334C23.3086 10.4937 25.1349 8.50979 26.7887 7.56564Z" fill="#800771"/>
<path d="M21.3374 27.0716C21.159 27.2778 20.8472 27.3003 20.641 27.1219C20.4348 26.9435 20.4122 26.6317 20.5907 26.4255C20.7691 26.2192 21.0809 26.1967 21.2871 26.3751C21.4933 26.5536 21.5159 26.8654 21.3374 27.0716Z" fill="#6D1863"/>
<path d="M24.6985 25.2657C24.4723 25.5272 24.077 25.5557 23.8155 25.3295C23.5541 25.1033 23.5255 24.708 23.7517 24.4465C23.9779 24.1851 24.3732 24.1565 24.6347 24.3827C24.8961 24.609 24.9247 25.0043 24.6985 25.2657Z" fill="#6D1863"/>
<path d="M27.3149 21.9378C27.0887 22.1993 26.6934 22.2279 26.4319 22.0016C26.1705 21.7754 26.1419 21.3801 26.3681 21.1187C26.5943 20.8572 26.9897 20.8287 27.2511 21.0549C27.5126 21.2811 27.5411 21.6764 27.3149 21.9378Z" fill="#6D1863"/>
<path d="M20.2889 29.0621C20.0627 29.3235 19.6674 29.3521 19.4059 29.1259C19.1445 28.8997 19.1159 28.5043 19.3422 28.2429C19.5684 27.9814 19.9637 27.9529 20.2251 28.1791C20.4866 28.4053 20.5151 28.8006 20.2889 29.0621Z" fill="#6D1863"/>
<path d="M23.0514 26.7299C22.8817 26.926 22.5853 26.9474 22.3892 26.7778C22.1931 26.6081 22.1717 26.3116 22.3413 26.1155C22.511 25.9195 22.8075 25.898 23.0036 26.0677C23.1996 26.2374 23.2211 26.5338 23.0514 26.7299Z" fill="#6D1863"/>
<path d="M22.2672 28.4697C22.0975 28.6658 21.8011 28.6872 21.605 28.5176C21.4089 28.3479 21.3875 28.0514 21.5571 27.8554C21.7268 27.6593 22.0233 27.6378 22.2194 27.8075C22.4154 27.9772 22.4369 28.2737 22.2672 28.4697Z" fill="#6D1863"/>
<path d="M25.6414 23.8494C25.4717 24.0455 25.1752 24.0669 24.9791 23.8972C24.783 23.7276 24.7616 23.4311 24.9313 23.235C25.1009 23.0389 25.3974 23.0175 25.5935 23.1872C25.7896 23.3568 25.811 23.6533 25.6414 23.8494Z" fill="#6D1863"/>
<path d="M22.7877 25.1957C22.618 25.3918 22.3215 25.4132 22.1255 25.2436C21.9294 25.0739 21.9079 24.7774 22.0776 24.5814C22.2473 24.3853 22.5438 24.3638 22.7398 24.5335C22.9359 24.7032 22.9573 24.9997 22.7877 25.1957Z" fill="#6D1863"/>
<path d="M18.5879 30.5557C18.3617 30.8171 17.9664 30.8457 17.705 30.6195C17.4435 30.3933 17.415 29.9979 17.6412 29.7365C17.8674 29.4751 18.2627 29.4465 18.5241 29.6727C18.7856 29.8989 18.8141 30.2942 18.5879 30.5557Z" fill="#6D1863"/>
<path d="M18.5703 28.318C18.3441 28.5794 17.9487 28.608 17.6873 28.3818C17.4259 28.1556 17.3973 27.7603 17.6235 27.4988C17.8497 27.2374 18.245 27.2088 18.5065 27.435C18.7679 27.6612 18.7965 28.0565 18.5703 28.318Z" fill="#6D1863"/>
<path d="M16.189 31.3023C15.9628 31.5637 15.5675 31.5923 15.306 31.3661C15.0446 31.1398 15.016 30.7445 15.2422 30.4831C15.4685 30.2216 15.8638 30.1931 16.1252 30.4193C16.3867 30.6455 16.4152 31.0408 16.189 31.3023Z" fill="#6D1863"/>
<path d="M16.406 29.4455C16.2263 29.6532 15.9121 29.6759 15.7044 29.4962C15.4966 29.3164 15.4739 29.0023 15.6537 28.7946C15.8334 28.5868 16.1476 28.5641 16.3553 28.7439C16.5631 28.9236 16.5857 29.2377 16.406 29.4455Z" fill="#6D1863"/>
<path d="M27.9387 20.0879C27.8268 20.2173 27.6313 20.2314 27.5019 20.1195C27.3726 20.0076 27.3584 19.812 27.4704 19.6827C27.5823 19.5533 27.7778 19.5392 27.9072 19.6511C28.0365 19.763 28.0506 19.9586 27.9387 20.0879Z" fill="#6D1863"/>
<path d="M25.4071 22.334C25.2952 22.4634 25.0996 22.4775 24.9703 22.3656C24.841 22.2537 24.8268 22.0581 24.9387 21.9288C25.0506 21.7994 25.2462 21.7853 25.3755 21.8972C25.5049 22.0091 25.519 22.2047 25.4071 22.334Z" fill="#6D1863"/>
<path d="M13.7245 31.4441C13.5548 31.6402 13.2583 31.6616 13.0622 31.4919C12.8662 31.3223 12.8447 31.0258 13.0144 30.8297C13.184 30.6336 13.4805 30.6122 13.6766 30.7818C13.8727 30.9515 13.8941 31.248 13.7245 31.4441Z" fill="#6D1863"/>
<path d="M13.9684 22.3049C14.6795 23.363 13.8773 25.1471 12.1768 26.2899C10.4763 27.4327 8.52132 27.5015 7.81028 26.4434C7.09923 25.3854 7.90136 23.6012 9.60188 22.4584C11.3024 21.3156 13.2574 21.2469 13.9684 22.3049Z" fill="#C448B5"/>
<path d="M27.3275 10.2105C28.3158 11.0156 27.1091 14.5601 24.375 17.9168C21.6408 21.2734 17.9167 21.8751 16.8749 21.6667C15.8866 20.8617 18.9583 21.8751 21.4583 17.9168C23.5416 13.9584 26.3391 9.40539 27.3275 10.2105Z" fill="#C448B5"/>
<path fill-rule="evenodd" clip-rule="evenodd" d="M34.3845 7.14547C32.2556 6.86161 31.0645 7.97406 30.7576 8.48562C30.6392 8.68295 30.3832 8.74693 30.1859 8.62854C29.9886 8.51014 29.9246 8.2542 30.043 8.05687C30.5054 7.28611 32.0073 5.98779 34.4947 6.31945C34.7228 6.34986 34.883 6.55943 34.8526 6.78753C34.8222 7.01563 34.6126 7.17588 34.3845 7.14547Z" fill="#537003"/>
<path d="M31.2683 7.65111C28.6458 4.97396 26.1197 7.65111 24.0105 8.28126C25.4562 9.37607 30.1661 10.6927 31.2683 7.65111Z" fill="#A3D711"/>
<path fill-rule="evenodd" clip-rule="evenodd" d="M29.3988 6.12156C30.1353 6.25494 30.8599 6.63881 31.566 7.35955C31.6781 7.47397 31.7146 7.64251 31.6601 7.79309C31.0148 9.57382 29.3116 10.0232 27.7444 9.93332C26.1769 9.84341 24.556 9.21706 23.7589 8.61344C23.6338 8.51867 23.5725 8.3616 23.6005 8.20712C23.6284 8.05264 23.7408 7.92698 23.8912 7.88204C24.3737 7.7379 24.8907 7.47285 25.4738 7.17058C25.4849 7.16484 25.496 7.15909 25.5071 7.15333C26.0665 6.86329 26.679 6.54571 27.3135 6.33124C27.9653 6.11091 28.6677 5.98915 29.3988 6.12156ZM24.9571 8.35929C25.7039 8.71959 26.7565 9.04196 27.7921 9.10135C29.1208 9.17757 30.2566 8.82343 30.7742 7.75265C30.2408 7.26498 29.732 7.0288 29.2503 6.94155C28.7042 6.84266 28.1516 6.92761 27.5804 7.12069C27.0066 7.31463 26.4421 7.60727 25.864 7.90697L25.8546 7.91181C25.56 8.06456 25.2588 8.22066 24.9571 8.35929Z" fill="#709604"/>
<path d="M31.3864 7.69483C30.5194 8.49858 29.2187 11.9532 33.2551 14.375C32.8646 12.6823 35.5989 8.43753 31.3864 7.69483Z" fill="#8CBA08"/>
<path fill-rule="evenodd" clip-rule="evenodd" d="M30.066 10.4514C29.9887 9.07301 30.5699 7.88357 31.1032 7.38924C31.1988 7.3006 31.3304 7.26183 31.4588 7.28446C32.587 7.48339 33.3268 7.93263 33.7505 8.58755C34.1655 9.22901 34.2264 9.99176 34.1694 10.7116C34.1223 11.3057 33.9889 11.9229 33.8698 12.4738C33.8452 12.588 33.8211 12.6993 33.7986 12.8069C33.7312 13.1286 33.6767 13.4186 33.6499 13.6757C33.6228 13.9356 33.6273 14.1346 33.6611 14.2813C33.6987 14.4442 33.6353 14.6137 33.5001 14.712C33.3649 14.8103 33.1841 14.8183 33.0407 14.7323C30.9179 13.4586 30.1456 11.8714 30.066 10.4514ZM32.8214 13.5854C32.8531 13.2845 32.915 12.9607 32.9829 12.6362C33.0078 12.5174 33.0335 12.3983 33.0591 12.2793C33.1777 11.7293 33.2964 11.1788 33.3386 10.6457C33.3898 9.99992 33.3201 9.45642 33.0508 9.0402C32.8106 8.66896 32.3686 8.33416 31.535 8.149C31.2167 8.55348 30.8415 9.39714 30.898 10.4048C30.9527 11.3814 31.4174 12.5406 32.8214 13.5854Z" fill="#709604"/>
<path d="M31.1696 7.6942C30.0155 7.43774 27.6688 7.96349 27.515 12.1182C29.3102 11.8618 32.5545 10.6179 31.1696 7.6942Z" fill="#CDFD44"/>
<path fill-rule="evenodd" clip-rule="evenodd" d="M28.7021 7.93053C29.5674 7.21682 30.5795 7.13621 31.26 7.28741C31.3855 7.31531 31.4911 7.39959 31.5461 7.51579C31.9254 8.31653 32.0052 9.04288 31.8387 9.68705C31.6733 10.3267 31.2783 10.8348 30.7993 11.2283C29.8542 12.0048 28.5093 12.397 27.5739 12.5307C27.4516 12.5481 27.3279 12.5105 27.2362 12.4278C27.1444 12.3452 27.094 12.2262 27.0986 12.1028C27.1783 9.95085 27.8306 8.64926 28.7021 7.93053ZM27.964 11.6124C28.7393 11.4399 29.6357 11.1058 30.2703 10.5844C30.6538 10.2694 30.9223 9.90236 31.0318 9.4785C31.1293 9.10141 31.1116 8.63849 30.8793 8.06834C30.4131 8.01799 29.7838 8.11858 29.2323 8.57341C28.6604 9.0451 28.1141 9.94676 27.964 11.6124Z" fill="#709604"/>
</g>
<defs>
<filter id="filter0_d_10_316" x="0" y="0" width="44" height="44" filterUnits="userSpaceOnUse" color-interpolation-filters="sRGB">
<feFlood flood-opacity="0" result="BackgroundImageFix"/>
<feColorMatrix in="SourceAlpha" type="matrix" values="0 0 0 0 0 0 0 0 0 0 0 0 0 0 0 0 0 0 127 0" result="hardAlpha"/>
<feOffset dx="4" dy="4"/>
<feColorMatrix type="matrix" values="0 0 0 0 0 0 0 0 0 0 0 0 0 0 0 0 0 0 0.2 0"/>
<feBlend mode="normal" in2="BackgroundImageFix" result="effect1_dropShadow_10_316"/>
<feBlend mode="normal" in="SourceGraphic" in2="effect1_dropShadow_10_316" result="shape"/>
</filter>
</defs>
</svg>
