<svg width="36" height="26" viewBox="0 0 36 26" fill="none" xmlns="http://www.w3.org/2000/svg">
<g filter="url(#filter0_d_7_890)">
<path d="M0.0404244 11.4794C0.0404244 11.4794 -0.0760496 15.1245 0.0928377 15.7768C0.325786 16.6831 3.99472 18.1421 7.13369 19.2625C10.2727 20.3829 18.8976 21.7871 22.9101 20.7116C26.9226 19.636 30.5624 17.9927 31.3428 15.0846C32.1232 12.1765 32.4726 6.17615 30.8653 4.3835C29.2579 2.59085 2.55044 9.33818 0.0404244 11.4794Z" fill="#F1C4AC"/>
<path d="M31.3024 5.04578C31.052 5.93712 30.6152 6.80855 30.2891 7.74471C29.7067 9.39794 28.6992 10.9267 28.0935 12.55C28.1548 12.7811 28.1548 13.021 28.0935 13.2521C27.5519 15.3535 26.2066 17.4748 24.0169 18.6102C22.7823 19.2426 21.1051 19.2625 19.719 19.2625C18.1583 19.2625 16.5975 19.3223 15.0601 19.2625C12.0762 19.148 9.13036 18.6443 6.32454 17.7686C4.05207 17.2168 1.91114 16.3267 0 15.1394C0.00200185 15.3532 0.0253818 15.5664 0.0698844 15.7768C0.302832 16.6831 3.97176 18.1421 7.11074 19.2625C10.2497 20.3829 18.8746 21.7872 22.8871 20.7116C26.8997 19.636 30.5395 17.9927 31.3199 15.0846C32.0303 12.4753 32.3972 7.35631 31.3024 5.04578Z" fill="#F1C4AC"/>
<path d="M17.0113 17.2009C9.76658 16.932 1.59593 14.1185 0.48943 12.784C0.250864 12.5046 0.0999282 12.1776 0.0509967 11.8341C0.00206515 11.4907 0.0567668 11.1423 0.209893 10.8221C0.687436 9.79128 2.11424 8.87504 3.70411 8.59618C6.73826 8.05341 10.1102 6.17611 14.0295 2.85474C16.359 0.862907 18.9797 -0.0881913 21.7809 0.00642055C23.6407 0.11606 25.4498 0.573314 27.0804 1.34593C29.9457 2.62568 31.7394 4.20918 31.6579 8.14304C31.6171 11.5242 30.4291 15.6124 21.5887 16.9619C20.0775 17.1831 18.5427 17.2633 17.0113 17.2009Z" fill="#F2845C"/>
<path d="M26.7538 1.88378C24.1856 0.743459 19.3694 -0.84503 14.524 3.28803C9.17207 7.81447 5.73026 8.85023 3.82009 9.18884C1.90992 9.52745 -0.0526706 11.0811 1.0713 12.4505C2.19528 13.8199 13.4816 17.6292 21.4542 16.3843C29.4269 15.1394 30.8945 11.7334 30.9469 8.15806C30.9993 4.58272 29.491 3.10378 26.7538 1.88378Z" fill="#DB494C"/>
<path d="M2.98773 10.9566C4.29806 10.341 5.78862 10.0626 7.2798 10.1548C9.75487 10.3192 11.9388 8.80038 12.2008 8.37213C11.8513 9.0183 11.2925 9.56529 10.5907 9.94831C9.88884 10.3313 9.07332 10.5343 8.24071 10.5333C4.99691 10.5931 4.30389 10.3042 2.98773 10.9566Z" fill="#FF9C78"/>
<path d="M25.3097 4.84653C24.3965 4.59977 23.4134 4.61903 22.5143 4.90131C22.2405 4.97586 21.9947 5.11118 21.802 5.29346C21.6093 5.47574 21.4766 5.69846 21.4174 5.93891C21.3582 6.17936 21.3746 6.42893 21.465 6.66217C21.5554 6.89542 21.7165 7.10399 21.932 7.26661C22.7531 7.8293 25.7232 7.73967 26.2298 7.416C26.7365 7.09233 27.0102 5.50882 25.3097 4.84653Z" fill="white"/>
<path d="M24.9775 5.18014C24.2945 4.99608 23.5595 5.01008 22.8867 5.21998C22.6857 5.27693 22.5055 5.37776 22.364 5.51251C22.2224 5.64725 22.1245 5.81124 22.0798 5.98826C22.0351 6.16529 22.0452 6.34923 22.1091 6.5219C22.173 6.69457 22.2885 6.84999 22.4441 6.9728C23.0265 7.39109 25.2745 7.32137 25.653 7.08235C25.7834 6.92598 25.8701 6.74611 25.9064 6.55659C25.9427 6.36706 25.9276 6.17294 25.8624 5.98918C25.7971 5.80542 25.6834 5.63691 25.53 5.49665C25.3765 5.35639 25.1875 5.2481 24.9775 5.18014Z" fill="#D9D9D9"/>
<path d="M12.1423 12.291C12.1423 12.291 12.3345 12.9633 14.1806 13.7301C15.5967 14.291 17.2142 14.3518 18.6824 13.8994C19.125 13.6604 16.5101 14.3177 14.8387 13.6604C13.896 13.2703 12.9939 12.8122 12.1423 12.291Z" fill="#FF9C78"/>
<path d="M18.2338 1.12195C17.9813 1.88466 17.5382 2.59143 16.9351 3.19345C16.0091 4.04495 14.693 4.32879 14.7512 5.04086C14.8094 5.75294 14.8793 4.78193 15.683 4.38356C16.7211 3.82529 17.6148 3.09158 18.3095 2.22741C18.4128 2.05401 18.4603 1.86019 18.447 1.6659C18.4337 1.4716 18.3601 1.28385 18.2338 1.12195Z" fill="#FF9C78"/>
<path d="M18.3627 6.8584C18.3627 6.8584 19.5275 8.21283 18.2637 8.9249C17 9.63698 18.1065 9.19878 18.8869 8.9249C19.6673 8.65103 18.8752 7.20199 18.3627 6.8584Z" fill="#FF9C78"/>
<path d="M29.456 7.85913C29.456 7.85913 27.5633 10.3091 26.4335 10.1647C25.4784 10.0452 22.9393 11.7631 22.7762 12.291C22.6131 12.8188 22.4675 12.7093 23.7255 11.9424C24.9834 11.1755 25.6648 10.5531 26.847 10.4485C28.2155 10.334 29.4385 8.25252 29.456 7.85913Z" fill="#FF9C78"/>
</g>
<defs>
<filter id="filter0_d_7_890" x="0" y="0" width="36.0001" height="25.0965" filterUnits="userSpaceOnUse" color-interpolation-filters="sRGB">
<feFlood flood-opacity="0" result="BackgroundImageFix"/>
<feColorMatrix in="SourceAlpha" type="matrix" values="0 0 0 0 0 0 0 0 0 0 0 0 0 0 0 0 0 0 127 0" result="hardAlpha"/>
<feOffset dx="4" dy="4"/>
<feComposite in2="hardAlpha" operator="out"/>
<feColorMatrix type="matrix" values="0 0 0 0 0 0 0 0 0 0 0 0 0 0 0 0 0 0 0.2 0"/>
<feBlend mode="normal" in2="BackgroundImageFix" result="effect1_dropShadow_7_890"/>
<feBlend mode="normal" in="SourceGraphic" in2="effect1_dropShadow_7_890" result="shape"/>
</filter>
</defs>
</svg>
