<svg width="24" height="24" viewBox="0 0 24 24" fill="none" xmlns="http://www.w3.org/2000/svg">
<path d="M6.50247 6.97519C6.7849 4.15083 9.16154 2 12 2C14.8384 2 17.2151 4.15083 17.4975 6.97519L17.7841 9.84133C17.8015 10.0156 17.8103 10.1028 17.8207 10.1885C17.9649 11.3717 18.3717 12.5077 19.0113 13.5135C19.0576 13.5865 19.1062 13.6593 19.2034 13.8051L20.0645 15.0968C20.8508 16.2763 21.244 16.866 21.0714 17.3412C21.0388 17.4311 20.9935 17.5158 20.9368 17.5928C20.6371 18 19.9283 18 18.5108 18H5.48922C4.07167 18 3.3629 18 3.06316 17.5928C3.00649 17.5158 2.96115 17.4311 2.92853 17.3412C2.75599 16.866 3.14915 16.2763 3.93546 15.0968L4.7966 13.8051C4.89376 13.6593 4.94235 13.5865 4.98871 13.5135C5.6283 12.5077 6.03506 11.3717 6.17926 10.1885C6.18971 10.1028 6.19842 10.0156 6.21585 9.84133L6.50247 6.97519Z" fill="white"/>
<path fill-rule="evenodd" clip-rule="evenodd" d="M13.4059 21.8788C12.982 21.9601 12.4892 22 12 22C11.5108 22 11.018 21.9601 10.5941 21.8788C10.3821 21.8381 10.1746 21.7847 9.98663 21.7144C9.81588 21.6505 9.58299 21.5444 9.38595 21.3606C8.98214 20.9838 8.96021 20.351 9.33698 19.9472C9.6925 19.5662 10.276 19.5252 10.68 19.8383C10.6823 19.8392 10.6848 19.8402 10.6875 19.8412C10.7408 19.8612 10.8335 19.8882 10.9709 19.9146C11.2455 19.9673 11.6087 20 12 20C12.3913 20 12.7545 19.9673 13.0291 19.9146C13.1665 19.8882 13.2592 19.8612 13.3125 19.8412C13.3152 19.8402 13.3177 19.8392 13.32 19.8383C13.724 19.5252 14.3075 19.5662 14.663 19.9472C15.0398 20.351 15.0179 20.9838 14.614 21.3606C14.417 21.5444 14.1841 21.6505 14.0134 21.7144C13.8254 21.7847 13.6179 21.8381 13.4059 21.8788Z" fill="white"/>
</svg>
