<svg width="31" height="30" viewBox="0 0 31 30" fill="none" xmlns="http://www.w3.org/2000/svg">
<path d="M4.70508 7.5C4.70508 6.11929 5.82437 5 7.20508 5H25.4551C25.7312 5 25.9551 5.22386 25.9551 5.5V8C25.9551 9.10457 25.0596 10 23.9551 10H7.20508C5.82437 10 4.70508 8.88071 4.70508 7.5Z" fill="#7E869E" fill-opacity="0.25"/>
<path d="M4.70508 21V7.5C4.70508 8.88071 5.82437 10 7.20508 10H25.2051C26.3096 10 27.2051 10.8954 27.2051 12V16.1C27.2051 16.1828 27.1379 16.25 27.0551 16.25H22.9551C21.8505 16.25 20.9551 17.1454 20.9551 18.25V19.25C20.9551 20.3546 21.8505 21.25 22.9551 21.25H27.0551C27.1379 21.25 27.2051 21.3172 27.2051 21.4V23C27.2051 24.1046 26.3096 25 25.2051 25H8.70508C6.49594 25 4.70508 23.2091 4.70508 21Z" fill="#6BCB77"/>
<path d="M19.7051 18.25C19.7051 17.1454 20.6005 16.25 21.7051 16.25H27.0551C27.1379 16.25 27.2051 16.3172 27.2051 16.4V21.1C27.2051 21.1828 27.1379 21.25 27.0551 21.25H21.7051C20.6005 21.25 19.7051 20.3546 19.7051 19.25V18.25Z" fill="#7E869E" fill-opacity="0.25"/>
<path d="M5.95508 10.5C5.95508 10.2239 6.17894 10 6.45508 10H11.4551C11.7312 10 11.9551 10.2239 11.9551 10.5C11.9551 10.7761 11.7312 11 11.4551 11H6.45508C6.17894 11 5.95508 10.7761 5.95508 10.5Z" fill="#7E869E"/>
</svg>
