<svg width="24" height="24" viewBox="0 0 24 24" fill="none" xmlns="http://www.w3.org/2000/svg">
<path d="M4.45068 13.9082L11.4033 20.4394C11.6428 20.6644 11.7625 20.7769 11.9037 20.8046C11.9673 20.8171 12.0327 20.8171 12.0963 20.8046C12.2375 20.7769 12.3572 20.6644 12.5967 20.4394L19.5493 13.9082C21.5055 12.0705 21.7431 9.04655 20.0978 6.92601L19.7885 6.52729C17.8203 3.99053 13.8696 4.41596 12.4867 7.3136C12.2913 7.72291 11.7087 7.72291 11.5133 7.3136C10.1304 4.41596 6.17972 3.99053 4.21154 6.52729L3.90219 6.92602C2.25695 9.04655 2.4945 12.0705 4.45068 13.9082Z" fill="white"/>
<path fill-rule="evenodd" clip-rule="evenodd" d="M18.9984 7.14039C17.4864 5.19166 14.4515 5.51847 13.3891 7.74443C12.8315 8.91277 11.1685 8.91277 10.6108 7.74443C9.54845 5.51847 6.51357 5.19166 5.00161 7.1404L4.69226 7.53912C3.3632 9.25212 3.5551 11.695 5.13534 13.1794L12 19.628L18.8646 13.1794C20.4449 11.695 20.6368 9.25212 19.3077 7.53912L18.9984 7.14039ZM12 6.15848C13.9769 3.25705 18.329 3.01496 20.5785 5.9144L20.8879 6.31312C22.8493 8.84118 22.5661 12.4463 20.234 14.6371L13.2814 21.1684C13.2748 21.1745 13.2682 21.1808 13.2614 21.1871C13.1598 21.2826 13.0374 21.3977 12.9198 21.4883C12.781 21.5952 12.5726 21.7303 12.2888 21.786L12.0963 20.8047L12.2888 21.786C12.0981 21.8234 11.9019 21.8234 11.7111 21.786L11.9037 20.8047L11.7111 21.786C11.4274 21.7303 11.219 21.5952 11.0802 21.4883C10.9626 21.3978 10.8402 21.2827 10.7386 21.1872C10.7319 21.1808 10.7252 21.1745 10.7186 21.1684L3.76598 14.6371C1.43387 12.4463 1.15066 8.84119 3.11209 6.31312L3.42144 5.9144C5.671 3.01497 10.0231 3.25705 12 6.15848Z" fill="white"/>
</svg>
