<svg width="40" height="40" viewBox="0 0 40 40" fill="none" xmlns="http://www.w3.org/2000/svg">
<g filter="url(#filter0_d_10_215)">
<path d="M29.1667 23.125C29.1667 28.3027 25.0626 32.5 20 32.5C14.9374 32.5 10.8333 28.3027 10.8333 23.125C10.8333 17.9473 14.9374 7.5 20 7.5C25.0626 7.5 29.1667 17.9473 29.1667 23.125Z" fill="#F2EB76"/>
<path fill-rule="evenodd" clip-rule="evenodd" d="M30 23.125C30 28.7452 25.5404 33.3334 20 33.3334C14.4596 33.3334 10 28.7452 10 23.125C10 20.3728 11.0735 16.3367 12.7755 12.9929C13.63 11.3141 14.6674 9.76018 15.8527 8.61422C17.0333 7.47274 18.4358 6.66669 20 6.66669C21.5642 6.66669 22.9667 7.47274 24.1473 8.61422C25.3326 9.76018 26.37 11.3141 27.2245 12.9929C28.9265 16.3367 30 20.3728 30 23.125ZM20 32.5C25.0626 32.5 29.1667 28.3027 29.1667 23.125C29.1667 17.9473 25.0626 7.50002 20 7.50002C14.9374 7.50002 10.8333 17.9473 10.8333 23.125C10.8333 28.3027 14.9374 32.5 20 32.5Z" fill="#538642"/>
<path d="M26.4427 28.0545C26.1206 28.4069 25.5738 28.4315 25.2214 28.1094C24.869 27.7873 24.8445 27.2405 25.1666 26.8881C25.4887 26.5357 26.0355 26.5111 26.3879 26.8332C26.7403 27.1554 26.7648 27.7021 26.4427 28.0545Z" fill="#C4CB29"/>
<path d="M23.1094 30.9712C22.7873 31.3236 22.2405 31.3482 21.8881 31.0261C21.5357 30.704 21.5111 30.1572 21.8332 29.8048C22.1553 29.4524 22.7021 29.4278 23.0545 29.7499C23.4069 30.072 23.4315 30.6188 23.1094 30.9712Z" fill="#C4CB29"/>
<path d="M13.526 26.3879C13.2039 26.7403 12.6571 26.7648 12.3047 26.4427C11.9523 26.1206 11.9278 25.5738 12.2499 25.2214C12.572 24.869 13.1188 24.8444 13.4712 25.1666C13.8236 25.4887 13.8482 26.0355 13.526 26.3879Z" fill="#C4CB29"/>
<path d="M25.054 30.0156C24.8281 30.2627 24.4446 30.2799 24.1975 30.054C23.9504 29.8281 23.9331 29.4446 24.159 29.1975C24.385 28.9504 24.7684 28.9331 25.0156 29.159C25.2627 29.3849 25.2799 29.7684 25.054 30.0156Z" fill="#C4CB29"/>
<path d="M20.8874 31.6823C20.6615 31.9294 20.278 31.9466 20.0308 31.7207C19.7837 31.4948 19.7665 31.1113 19.9924 30.8642C20.2183 30.617 20.6018 30.5998 20.8489 30.8257C21.0961 31.0516 21.1133 31.4351 20.8874 31.6823Z" fill="#C4CB29"/>
<path d="M14.2207 27.9323C13.9948 28.1794 13.6113 28.1966 13.3642 27.9707C13.117 27.7448 13.0998 27.3613 13.3257 27.1142C13.5516 26.867 13.9351 26.8498 14.1823 27.0757C14.4294 27.3016 14.4466 27.6851 14.2207 27.9323Z" fill="#C4CB29"/>
<path d="M13.3874 23.7656C13.1615 24.0127 12.778 24.0299 12.5308 23.804C12.2837 23.5781 12.2665 23.1946 12.4924 22.9475C12.7183 22.7004 13.1018 22.6831 13.3489 22.909C13.5961 23.1349 13.6133 23.5184 13.3874 23.7656Z" fill="#C4CB29"/>
<path d="M27.9707 26.2656C27.7448 26.5127 27.3613 26.5299 27.1142 26.304C26.867 26.0781 26.8498 25.6946 27.0757 25.4475C27.3016 25.2004 27.6851 25.1831 27.9323 25.409C28.1794 25.6349 28.1966 26.0184 27.9707 26.2656Z" fill="#C4CB29"/>
<path d="M23.75 23.3334C23.75 25.4044 22.0711 27.0834 20 27.0834C17.9289 27.0834 16.25 25.4044 16.25 23.3334C16.25 21.2623 17.9289 19.5834 20 19.5834C22.0711 19.5834 23.75 21.2623 23.75 23.3334Z" fill="#B6472C"/>
<path fill-rule="evenodd" clip-rule="evenodd" d="M24.5833 23.3333C24.5833 25.8646 22.5313 27.9167 20 27.9167C17.4687 27.9167 15.4167 25.8646 15.4167 23.3333C15.4167 20.802 17.4687 18.75 20 18.75C22.5313 18.75 24.5833 20.802 24.5833 23.3333ZM20 27.0833C22.0711 27.0833 23.75 25.4044 23.75 23.3333C23.75 21.2623 22.0711 19.5833 20 19.5833C17.9289 19.5833 16.25 21.2623 16.25 23.3333C16.25 25.4044 17.9289 27.0833 20 27.0833Z" fill="#662513"/>
<path fill-rule="evenodd" clip-rule="evenodd" d="M19.5833 25.8334C21.6544 25.8334 23.3333 24.1544 23.3333 22.0834C23.3333 21.8989 23.32 21.7175 23.2943 21.5402C23.5849 22.0729 23.75 22.6838 23.75 23.3334C23.75 25.4044 22.0711 27.0834 20 27.0834C18.1134 27.0834 16.5522 25.6902 16.289 23.8766C16.925 25.0424 18.1618 25.8334 19.5833 25.8334Z" fill="#A43E25"/>
</g>
<defs>
<filter id="filter0_d_10_215" x="0" y="0" width="44" height="44" filterUnits="userSpaceOnUse" color-interpolation-filters="sRGB">
<feFlood flood-opacity="0" result="BackgroundImageFix"/>
<feColorMatrix in="SourceAlpha" type="matrix" values="0 0 0 0 0 0 0 0 0 0 0 0 0 0 0 0 0 0 127 0" result="hardAlpha"/>
<feOffset dx="4" dy="4"/>
<feColorMatrix type="matrix" values="0 0 0 0 0 0 0 0 0 0 0 0 0 0 0 0 0 0 0.2 0"/>
<feBlend mode="normal" in2="BackgroundImageFix" result="effect1_dropShadow_10_215"/>
<feBlend mode="normal" in="SourceGraphic" in2="effect1_dropShadow_10_215" result="shape"/>
</filter>
</defs>
</svg>
