<svg width="18" height="17" viewBox="0 0 18 17" fill="none" xmlns="http://www.w3.org/2000/svg">
<path d="M16.9181 6.72989C16.8445 6.71742 16.7699 6.71167 16.6953 6.71268H3.9967L4.2736 6.57841C4.54425 6.44485 4.79048 6.26308 5.00125 6.04132L8.56227 2.32868C9.03127 1.86192 9.11007 1.11104 8.74902 0.549569C8.3288 -0.0487418 7.52295 -0.17865 6.94903 0.259456C6.90266 0.29487 6.85859 0.333474 6.81718 0.375014L0.377725 7.08865C-0.125519 7.61273 -0.125962 8.46288 0.376718 8.98755C0.37704 8.98789 0.377403 8.98827 0.377725 8.9886L6.81718 15.7022C7.32083 16.2259 8.13626 16.2247 8.63854 15.6996C8.67806 15.6583 8.71497 15.6143 8.74902 15.568C9.11007 15.0065 9.03127 14.2556 8.56227 13.7888L5.00769 10.0695C4.81874 9.87228 4.60148 9.70692 4.36375 9.5794L3.97738 9.39813H16.6245C17.2824 9.4236 17.8596 8.94446 17.9832 8.27024C18.0971 7.53825 17.6202 6.84863 16.9181 6.72989Z" fill="white"/>
</svg>
