<svg width="40" height="40" viewBox="0 0 40 40" fill="none" xmlns="http://www.w3.org/2000/svg">
<path fill-rule="evenodd" clip-rule="evenodd" d="M6.96709 12.8333C6.97802 12.8333 6.98899 12.8333 7 12.8333L33.0329 12.8333C33.4762 12.8332 33.8581 12.8332 34.1639 12.8743C34.4917 12.9184 34.8058 13.0178 35.0607 13.2726C35.3155 13.5274 35.4149 13.8416 35.4589 14.1694C35.5 14.4752 35.5 14.8571 35.5 15.3004V19.6995C35.5 20.1427 35.5 20.5246 35.4589 20.8305C35.4149 21.1582 35.3155 21.4724 35.0607 21.7272C34.8058 21.9821 34.4917 22.0815 34.1639 22.1255C33.8581 22.1666 33.4762 22.1666 33.0329 22.1666L32 22.1666C31.5145 22.1666 31.2006 22.1676 30.9694 22.1987C30.7525 22.2279 30.6845 22.275 30.6464 22.313C30.6084 22.3511 30.5613 22.4191 30.5322 22.6359C30.5011 22.8672 30.5 23.181 30.5 23.6666V31.3661C30.5 31.8094 30.5 32.1913 30.4589 32.4971C30.4149 32.8249 30.3155 33.1391 30.0607 33.3939C29.8058 33.6487 29.4917 33.7481 29.1639 33.7922C28.8581 33.8333 28.4762 33.8333 28.0329 33.8333H11.9671C11.5238 33.8333 11.1419 33.8333 10.8361 33.7922C10.5083 33.7481 10.1942 33.6487 9.93934 33.3939C9.68451 33.1391 9.58514 32.8249 9.54107 32.4971C9.49995 32.1913 9.49998 31.8094 9.5 31.3662L9.5 23.6666C9.5 23.181 9.49894 22.8672 9.46785 22.6359C9.43869 22.4191 9.39162 22.3511 9.35356 22.313C9.31549 22.275 9.24752 22.2279 9.03065 22.1987C8.7994 22.1676 8.48554 22.1666 8 22.1666L6.96707 22.1666C6.52383 22.1666 6.14193 22.1666 5.83611 22.1255C5.50835 22.0815 5.19417 21.9821 4.93934 21.7272C4.68451 21.4724 4.58514 21.1582 4.54107 20.8305C4.49995 20.5247 4.49998 20.1427 4.5 19.6995L4.5 15.3333C4.5 15.3222 4.5 15.3113 4.5 15.3003C4.49998 14.8571 4.49995 14.4752 4.54107 14.1694C4.58514 13.8416 4.68451 13.5274 4.93934 13.2726C5.19417 13.0178 5.50835 12.9184 5.83611 12.8743C6.14194 12.8332 6.52384 12.8332 6.96709 12.8333ZM5.96935 13.8654C5.75248 13.8946 5.68451 13.9416 5.64645 13.9797C5.60839 14.0178 5.56131 14.0857 5.53216 14.3026C5.50106 14.5339 5.5 14.8477 5.5 15.3333V19.6666C5.5 20.1521 5.50106 20.466 5.53216 20.6972C5.56131 20.9141 5.60839 20.9821 5.64645 21.0201C5.68451 21.0582 5.75248 21.1053 5.96935 21.1344C6.20061 21.1655 6.51446 21.1666 7 21.1666L8.03292 21.1666C8.47616 21.1666 8.85807 21.1665 9.1639 21.2077C9.49166 21.2517 9.80583 21.3511 10.0607 21.6059C10.3155 21.8608 10.4149 22.1749 10.4589 22.5027C10.5001 22.8085 10.5 23.1904 10.5 23.6337L10.5 31.3333C10.5 31.8188 10.5011 32.1326 10.5322 32.3639C10.5613 32.5808 10.6084 32.6487 10.6464 32.6868C10.6845 32.7249 10.7525 32.7719 10.9694 32.8011C11.2006 32.8322 11.5145 32.8333 12 32.8333H28C28.4855 32.8333 28.7994 32.8322 29.0306 32.8011C29.2475 32.7719 29.3155 32.7249 29.3536 32.6868C29.3916 32.6487 29.4387 32.5808 29.4678 32.3639C29.4989 32.1326 29.5 31.8188 29.5 31.3333V23.6337C29.5 23.1904 29.5 22.8085 29.5411 22.5027C29.5851 22.1749 29.6845 21.8608 29.9393 21.6059C30.1942 21.3511 30.5083 21.2517 30.8361 21.2077C31.1419 21.1665 31.5238 21.1666 31.9671 21.1666L33 21.1666C33.4855 21.1666 33.7994 21.1655 34.0306 21.1344C34.2475 21.1053 34.3155 21.0582 34.3536 21.0201C34.3916 20.9821 34.4387 20.9141 34.4678 20.6972C34.4989 20.466 34.5 20.1521 34.5 19.6666V15.3333C34.5 14.8477 34.4989 14.5339 34.4678 14.3026C34.4387 14.0857 34.3916 14.0178 34.3536 13.9797C34.3155 13.9416 34.2475 13.8946 34.0306 13.8654C33.7994 13.8343 33.4855 13.8333 33 13.8333H7C6.51446 13.8333 6.20061 13.8343 5.96935 13.8654Z" fill="#595959"/>
<path fill-rule="evenodd" clip-rule="evenodd" d="M7.83331 21.6667C7.83331 21.3906 8.05717 21.1667 8.33331 21.1667H31.6666C31.9428 21.1667 32.1666 21.3906 32.1666 21.6667C32.1666 21.9429 31.9428 22.1667 31.6666 22.1667H8.33331C8.05717 22.1667 7.83331 21.9429 7.83331 21.6667Z" fill="#595959"/>
<path fill-rule="evenodd" clip-rule="evenodd" d="M20 11.1667C20.2761 11.1667 20.5 11.3906 20.5 11.6667L20.5 33.3334C20.5 33.6096 20.2761 33.8334 20 33.8334C19.7239 33.8334 19.5 33.6096 19.5 33.3334L19.5 11.6667C19.5 11.3906 19.7239 11.1667 20 11.1667Z" fill="#595959"/>
<path fill-rule="evenodd" clip-rule="evenodd" d="M10.8077 6.35184C9.83636 6.02808 8.83331 6.75103 8.83331 7.77487V10.2252C8.83331 10.8708 9.24646 11.444 9.85897 11.6482L13.4914 12.859C13.7534 12.9463 13.895 13.2295 13.8077 13.4915C13.7203 13.7534 13.4372 13.895 13.1752 13.8077L9.54274 12.5969C8.52189 12.2566 7.83331 11.3012 7.83331 10.2252V7.77487C7.83331 6.06847 9.50505 4.86355 11.1239 5.40316L13.5279 6.20451C15.2216 6.76908 16.7606 7.72023 18.023 8.98264L20.3535 11.3131C20.5488 11.5084 20.5488 11.825 20.3535 12.0202C20.1583 12.2155 19.8417 12.2155 19.6464 12.0202L17.3159 9.68974C16.1633 8.53711 14.7581 7.66867 13.2117 7.15319L10.8077 6.35184Z" fill="#595959"/>
<path fill-rule="evenodd" clip-rule="evenodd" d="M29.1923 6.35184C30.1636 6.02808 31.1667 6.75103 31.1667 7.77487V10.2252C31.1667 10.8708 30.7535 11.444 30.141 11.6482L26.5086 12.859C26.2466 12.9463 26.105 13.2295 26.1923 13.4915C26.2797 13.7534 26.5628 13.895 26.8248 13.8077L30.4573 12.5969C31.4781 12.2566 32.1667 11.3012 32.1667 10.2252V7.77487C32.1667 6.06847 30.4949 4.86355 28.8761 5.40316L26.4721 6.20451C24.7784 6.76908 23.2394 7.72023 21.977 8.98264L19.6465 11.3131C19.4512 11.5084 19.4512 11.825 19.6465 12.0202C19.8417 12.2155 20.1583 12.2155 20.3536 12.0202L22.6841 9.68974C23.8367 8.53711 25.2419 7.66867 26.7883 7.15319L29.1923 6.35184Z" fill="#595959"/>
</svg>
