<svg width="40" height="40" viewBox="0 0 40 40" fill="none" xmlns="http://www.w3.org/2000/svg">
<path fill-rule="evenodd" clip-rule="evenodd" d="M19 13.3335H7C6.05719 13.3335 5.58579 13.3335 5.29289 13.6264C5 13.9193 5 14.3907 5 15.3335V19.6668C5 20.6096 5 21.081 5.29289 21.3739C5.58579 21.6668 6.05719 21.6668 7 21.6668H10V22.3335H19V13.3335ZM10 24.3335V33.0002C10 33.943 10 34.4144 10.2929 34.7073C10.5858 35.0002 11.0572 35.0002 12 35.0002H19V24.3335H10ZM21 35.0002H28C28.9428 35.0002 29.4142 35.0002 29.7071 34.7073C30 34.4144 30 33.943 30 33.0002V24.3335H21V35.0002ZM30 22.3335V21.6668H33C33.9428 21.6668 34.4142 21.6668 34.7071 21.3739C35 21.081 35 20.6096 35 19.6668V15.3335C35 14.3907 35 13.9193 34.7071 13.6264C34.4142 13.3335 33.9428 13.3335 33 13.3335H21V22.3335H30Z" fill="#6BCB77"/>
<path d="M31.6667 8.55864V6.10835C31.6667 4.74323 30.3293 3.77929 29.0342 4.21098L26.6302 5.01233C25.0101 5.55235 23.538 6.46215 22.3305 7.66967L20 10.0002V11.6668H26.3421C26.5571 11.6668 26.7707 11.6322 26.9746 11.5642L30.2991 10.456C31.1158 10.1838 31.6667 9.41951 31.6667 8.55864Z" fill="#6BCB77"/>
<path d="M8.33331 8.55864V6.10835C8.33331 4.74323 9.6707 3.77929 10.9658 4.21098L13.3698 5.01233C14.9899 5.55235 16.462 6.46215 17.6695 7.66967L20 10.0002V11.6668H13.6579C13.4429 11.6668 13.2293 11.6322 13.0254 11.5642L9.70086 10.456C8.88417 10.1838 8.33331 9.41951 8.33331 8.55864Z" fill="#6BCB77"/>
</svg>
