<svg width="40" height="40" viewBox="0 0 40 40" fill="none" xmlns="http://www.w3.org/2000/svg">
<path d="M7.9546 6.51493C8.13649 5.78737 8.22744 5.42359 8.4987 5.21179C8.76996 5 9.14493 5 9.89489 5H30.1051C30.8551 5 31.23 5 31.5013 5.21179C31.7726 5.42359 31.8635 5.78737 32.0454 6.51493L34.3787 15.8483C34.6647 16.9922 34.8077 17.5642 34.5074 17.9487C34.2072 18.3333 33.6176 18.3333 32.4384 18.3333H31.7218C30.1035 18.3333 29.2943 18.3333 28.7348 17.8594C28.1753 17.3854 28.0423 16.5873 27.7763 14.9909L27.6973 14.517C27.6222 14.0667 27.5847 13.8416 27.5 13.8416C27.4153 13.8416 27.3778 14.0667 27.3027 14.517L27.1462 15.4564C26.9554 16.601 26.86 17.1733 26.5373 17.5788C26.3742 17.7837 26.1726 17.9545 25.9437 18.0817C25.4907 18.3333 24.9104 18.3333 23.75 18.3333C22.5896 18.3333 22.0093 18.3333 21.5563 18.0817C21.3274 17.9545 21.1258 17.7837 20.9627 17.5788C20.64 17.1733 20.5446 16.601 20.3538 15.4564L20.1973 14.517C20.1222 14.0667 20.0847 13.8416 20 13.8416C19.9153 13.8416 19.8778 14.0667 19.8027 14.517L19.6462 15.4564C19.4554 16.601 19.36 17.1733 19.0373 17.5788C18.8742 17.7837 18.6726 17.9545 18.4437 18.0817C17.9907 18.3333 17.4104 18.3333 16.25 18.3333C15.0896 18.3333 14.5093 18.3333 14.0563 18.0817C13.8274 17.9545 13.6258 17.7837 13.4627 17.5788C13.14 17.1733 13.0446 16.601 12.8538 15.4564L12.6973 14.517C12.6222 14.0667 12.5847 13.8416 12.5 13.8416C12.4153 13.8416 12.3778 14.0667 12.3027 14.517L12.2237 14.9909C11.9577 16.5873 11.8247 17.3854 11.2652 17.8594C10.7057 18.3333 9.8965 18.3333 8.27816 18.3333H7.56155C6.38242 18.3333 5.79285 18.3333 5.49257 17.9487C5.19229 17.5642 5.33529 16.9922 5.62127 15.8483L7.9546 6.51493Z" fill="#6BCB77"/>
<path fill-rule="evenodd" clip-rule="evenodd" d="M8.3357 19.8334C8.33331 20.0888 8.33331 20.3657 8.33331 20.6667V34.6667C8.33331 35.6096 8.33331 36.081 8.62621 36.3739C8.9191 36.6667 9.3905 36.6667 10.3333 36.6667H16.6666V29.3334C16.6666 28.7811 17.1144 28.3334 17.6666 28.3334H22.3333C22.8856 28.3334 23.3333 28.7811 23.3333 29.3334V36.6667H29.6666C30.6095 36.6667 31.0809 36.6667 31.3738 36.3739C31.6666 36.081 31.6666 35.6096 31.6666 34.6667V20.6667C31.6666 20.3657 31.6666 20.0888 31.6643 19.8334L31.642 19.8334C30.9017 19.8335 30.214 19.8336 29.6454 19.7626C29.0149 19.6839 28.3513 19.5005 27.7653 19.004C27.67 18.9233 27.5825 18.8391 27.502 18.7523C27.2596 19.0059 26.9799 19.222 26.6721 19.393C26.1916 19.6599 25.7022 19.7546 25.2476 19.7958C24.8322 19.8335 24.3381 19.8335 23.8067 19.8334H23.8067L23.75 19.8334L23.6933 19.8334H23.6932C23.1619 19.8335 22.6677 19.8335 22.2523 19.7958C21.7978 19.7546 21.3084 19.6599 20.8278 19.393C20.5209 19.2225 20.242 19.0071 20 18.7544C19.758 19.0071 19.479 19.2225 19.1721 19.393C18.6916 19.6599 18.2022 19.7546 17.7476 19.7958C17.3322 19.8335 16.8381 19.8335 16.3067 19.8334H16.3067L16.25 19.8334L16.1933 19.8334H16.1932C15.6619 19.8335 15.1677 19.8335 14.7523 19.7958C14.2978 19.7546 13.8084 19.6599 13.3278 19.393C13.0201 19.222 12.7404 19.0059 12.4979 18.7523C12.4175 18.8391 12.33 18.9233 12.2347 19.004C11.6486 19.5005 10.985 19.6839 10.3545 19.7626C9.786 19.8336 9.09826 19.8335 8.35796 19.8334L8.3357 19.8334ZM9.775 16.806C9.8495 16.8005 9.91838 16.7938 9.98287 16.7857C10.1464 16.7653 10.23 16.7413 10.2687 16.727C10.2724 16.7256 10.2757 16.7243 10.2785 16.7231C10.094 16.743 9.92695 16.7698 9.775 16.806ZM14.6549 16.6667C14.6912 16.7074 14.7341 16.7419 14.7816 16.7688C14.7997 16.7752 14.8651 16.7937 15.0234 16.8081C15.2867 16.832 15.6425 16.8334 16.25 16.8334C16.8575 16.8334 17.2132 16.832 17.4766 16.8081C17.6348 16.7937 17.7002 16.7752 17.7183 16.7688C17.7659 16.7419 17.8087 16.7074 17.8451 16.6667H14.6549ZM22.1549 16.6667C22.1912 16.7074 22.2341 16.7419 22.2816 16.7688C22.2997 16.7752 22.3651 16.7937 22.5234 16.8081C22.7867 16.832 23.1425 16.8334 23.75 16.8334C24.3575 16.8334 24.7132 16.832 24.9766 16.8081C25.1348 16.7937 25.2002 16.7752 25.2183 16.7688C25.2659 16.7419 25.3087 16.7074 25.3451 16.6667H22.1549ZM29.7214 16.7231C29.906 16.743 30.073 16.7698 30.225 16.806C30.1505 16.8005 30.0816 16.7938 30.0171 16.7857C29.8535 16.7653 29.77 16.7413 29.7313 16.727C29.7275 16.7256 29.7243 16.7243 29.7214 16.7231ZM25.2239 16.7664C25.224 16.7665 25.2225 16.7672 25.2189 16.7685C25.222 16.767 25.2238 16.7664 25.2239 16.7664ZM22.2775 16.7669C22.2766 16.7666 22.2761 16.7664 22.2761 16.7664C22.2759 16.7665 22.2774 16.7672 22.281 16.7685C22.2796 16.7678 22.2784 16.7673 22.2775 16.7669ZM17.7239 16.7664C17.724 16.7665 17.7225 16.7672 17.7189 16.7685C17.722 16.767 17.7238 16.7664 17.7239 16.7664ZM14.7761 16.7664C14.7762 16.7664 14.778 16.767 14.781 16.7685C14.7775 16.7672 14.7759 16.7665 14.7761 16.7664ZM18.6666 36.6667H21.3333V30.3334H18.6666V36.6667Z" fill="#6BCB77"/>
</svg>
