<svg width="40" height="40" viewBox="0 0 40 40" fill="none" xmlns="http://www.w3.org/2000/svg">
<path fill-rule="evenodd" clip-rule="evenodd" d="M15.2619 26.1429C15.2619 25.1961 16.0294 24.4286 16.9762 24.4286H23.0238C23.9706 24.4286 24.7381 25.1961 24.7381 26.1429V35C24.7381 35.3156 24.4823 35.5714 24.1667 35.5714C23.8511 35.5714 23.5952 35.3156 23.5952 35V26.1429C23.5952 25.8273 23.3394 25.5714 23.0238 25.5714H16.9762C16.6606 25.5714 16.4048 25.8273 16.4048 26.1429V35C16.4048 35.3156 16.1489 35.5714 15.8333 35.5714C15.5177 35.5714 15.2619 35.3156 15.2619 35V26.1429Z" fill="#525E75"/>
<path fill-rule="evenodd" clip-rule="evenodd" d="M8.90476 18.3333V30.4286C8.90476 31.5222 8.90597 32.285 8.98335 32.8605C9.05851 33.4196 9.196 33.7156 9.40686 33.9265C9.61773 34.1373 9.91378 34.2748 10.4729 34.35C11.0484 34.4274 11.8111 34.4286 12.9048 34.4286H27.0952C28.1889 34.4286 28.9516 34.4274 29.5271 34.35C30.0862 34.2748 30.3823 34.1373 30.5931 33.9265C30.804 33.7156 30.9415 33.4196 31.0167 32.8605C31.094 32.285 31.0952 31.5222 31.0952 30.4286V18.3333H32.2381V30.4704C32.2381 31.5124 32.2381 32.3522 32.1493 33.0128C32.0571 33.6986 31.8599 34.276 31.4013 34.7346C30.9427 35.1932 30.3652 35.3905 29.6794 35.4827C29.0189 35.5715 28.179 35.5715 27.1371 35.5714H12.8629C11.821 35.5715 10.9811 35.5715 10.3206 35.4827C9.63477 35.3905 9.05734 35.1932 8.59874 34.7346C8.14014 34.276 7.94288 33.6986 7.85068 33.0128C7.76187 32.3522 7.76189 31.5124 7.7619 30.4704L7.7619 18.3333H8.90476Z" fill="#525E75"/>
<path fill-rule="evenodd" clip-rule="evenodd" d="M10.0862 4.42856H29.9138C30.3152 4.42854 30.6656 4.42852 30.9529 4.46286C31.2629 4.49993 31.5618 4.58273 31.8293 4.79164C32.0969 5.00054 32.2497 5.27043 32.3609 5.56221C32.4639 5.8325 32.5488 6.1725 32.6461 6.56183L34.8683 15.4504C35.0165 16.0432 35.1422 16.5457 35.1857 16.9529C35.2317 17.3825 35.2003 17.8158 34.9242 18.1967C34.9003 18.2296 34.8752 18.2617 34.849 18.2929C34.5454 18.6544 34.1293 18.7891 33.6992 18.8484C33.2902 18.9048 32.7668 18.9048 32.1478 18.9048L32.0719 18.9048C31.2299 18.9048 30.5487 18.9048 30.003 18.8417C29.4364 18.7762 28.9494 18.6369 28.5271 18.3119C28.4563 18.2574 28.388 18.1996 28.3226 18.1387C27.9335 17.7763 27.7161 17.3222 27.5588 16.778C27.5439 16.7263 27.5293 16.6732 27.5151 16.6187C27.4395 16.95 27.3485 17.2257 27.2084 17.4697C26.8761 18.0488 26.3516 18.4932 25.7258 18.7258C25.2424 18.9054 24.6808 18.9052 23.8633 18.9048C23.8261 18.9048 23.7883 18.9048 23.75 18.9048C23.7117 18.9048 23.6739 18.9048 23.6367 18.9048C22.8192 18.9052 22.2576 18.9054 21.7742 18.7258C21.1484 18.4932 20.6239 18.0488 20.2916 17.4697C20.1607 17.2418 20.0727 16.986 20 16.6833C19.9273 16.986 19.8393 17.2418 19.7084 17.4697C19.3761 18.0488 18.8516 18.4932 18.2258 18.7258C17.7424 18.9054 17.1808 18.9052 16.3633 18.9048C16.3261 18.9048 16.2883 18.9048 16.25 18.9048C16.2117 18.9048 16.1739 18.9048 16.1367 18.9048C15.3192 18.9052 14.7576 18.9054 14.2742 18.7258C13.6484 18.4932 13.1239 18.0488 12.7916 17.4697C12.6515 17.2257 12.5605 16.95 12.4849 16.6187C12.4707 16.6732 12.4561 16.7263 12.4412 16.778C12.2839 17.3222 12.0665 17.7763 11.6774 18.1387C11.612 18.1996 11.5437 18.2574 11.4729 18.3119C11.0506 18.6369 10.5636 18.7762 9.997 18.8417C9.45125 18.9048 8.77005 18.9048 7.92805 18.9048L7.85216 18.9048C7.23316 18.9048 6.70979 18.9048 6.30076 18.8484C5.87068 18.7891 5.45455 18.6544 5.15096 18.2929C5.12478 18.2617 5.09971 18.2296 5.07581 18.1967C4.79967 17.8158 4.76832 17.3825 4.81428 16.9529C4.85783 16.5457 4.98348 16.0432 5.13173 15.4503L7.34612 6.59275C7.3487 6.58243 7.35127 6.57214 7.35384 6.56189C7.45115 6.17254 7.53613 5.83252 7.63911 5.56221C7.75027 5.27043 7.90309 5.00054 8.17065 4.79164C8.43821 4.58273 8.7371 4.49993 9.04714 4.46286C9.33435 4.42852 9.68483 4.42854 10.0862 4.42856ZM9.18283 5.59763C8.98682 5.62107 8.91643 5.6593 8.87398 5.69244C8.83153 5.72559 8.77737 5.7846 8.70709 5.96908C8.63134 6.16792 8.56217 6.44068 8.45486 6.86993L6.25045 15.6876C6.08952 16.3313 5.98472 16.7559 5.95065 17.0744C5.91801 17.3796 5.96461 17.4755 6.0011 17.5259C6.00906 17.5369 6.01742 17.5476 6.02615 17.558C6.0651 17.6043 6.14725 17.6736 6.45684 17.7163C6.77846 17.7606 7.22205 17.7619 7.89318 17.7619C8.77834 17.7619 9.39331 17.761 9.86576 17.7064C10.3249 17.6533 10.5818 17.5555 10.7759 17.4062C10.8184 17.3735 10.8593 17.3388 10.8986 17.3022C11.0786 17.1346 11.2166 16.8988 11.3433 16.4607C11.4738 16.009 11.5745 15.4103 11.7184 14.547L11.7226 14.5216C11.7588 14.3042 11.7921 14.1045 11.8292 13.9597C11.8475 13.8879 11.8776 13.7839 11.9319 13.6864C11.9791 13.6016 12.1282 13.3747 12.4357 13.3458C12.4785 13.3418 12.5215 13.3418 12.5642 13.3458C12.8718 13.3747 13.0209 13.6016 13.0681 13.6864C13.1223 13.7839 13.1524 13.8879 13.1708 13.9597C13.2079 14.1045 13.2411 14.3042 13.2774 14.5216L13.4175 15.3624C13.5779 16.3249 13.642 16.6555 13.7828 16.9009C13.9822 17.2483 14.2969 17.5149 14.6724 17.6545C14.9376 17.7531 15.2742 17.7619 16.25 17.7619C17.2258 17.7619 17.5624 17.7531 17.8276 17.6545C18.2031 17.5149 18.5178 17.2483 18.7172 16.9009C18.858 16.6555 18.9221 16.3249 19.0825 15.3624L19.2226 14.5216C19.2588 14.3042 19.2921 14.1045 19.3292 13.9597C19.3475 13.8879 19.3776 13.7839 19.4319 13.6864C19.4791 13.6016 19.6282 13.3747 19.9357 13.3458C19.9785 13.3418 20.0215 13.3418 20.0642 13.3458C20.3718 13.3747 20.5209 13.6016 20.5681 13.6864C20.6223 13.7839 20.6524 13.8879 20.6708 13.9597C20.7079 14.1045 20.7411 14.3042 20.7773 14.5216L20.9175 15.3624C21.0779 16.3249 21.142 16.6555 21.2828 16.9009C21.4822 17.2483 21.7969 17.5149 22.1724 17.6545C22.4376 17.7531 22.7742 17.7619 23.75 17.7619C24.7258 17.7619 25.0624 17.7531 25.3276 17.6545C25.7031 17.5149 26.0178 17.2483 26.2172 16.9009C26.358 16.6555 26.4221 16.3249 26.5825 15.3624L26.7226 14.5217C26.7588 14.3043 26.7921 14.1045 26.8292 13.9597C26.8476 13.8879 26.8776 13.7839 26.9319 13.6864C26.9791 13.6016 27.1282 13.3747 27.4357 13.3458C27.4785 13.3418 27.5215 13.3418 27.5642 13.3458C27.8718 13.3747 28.0209 13.6016 28.0681 13.6864C28.1223 13.7839 28.1524 13.8879 28.1708 13.9597C28.2079 14.1045 28.2411 14.3041 28.2773 14.5215L28.2816 14.547C28.4255 15.4103 28.5262 16.009 28.6567 16.4607C28.7834 16.8988 28.9214 17.1346 29.1014 17.3022C29.1407 17.3388 29.1816 17.3735 29.2241 17.4062C29.4182 17.5555 29.6751 17.6533 30.1342 17.7064C30.6067 17.761 31.2216 17.7619 32.1068 17.7619C32.7779 17.7619 33.2215 17.7606 33.5432 17.7163C33.8527 17.6736 33.9349 17.6043 33.9738 17.558C33.9826 17.5476 33.9909 17.5369 33.9989 17.5259C34.0354 17.4755 34.082 17.3796 34.0493 17.0744C34.0153 16.7559 33.9105 16.3313 33.7495 15.6876L31.5451 6.86993C31.4378 6.44068 31.3687 6.16792 31.2929 5.96908C31.2226 5.7846 31.1685 5.72559 31.126 5.69244C31.0836 5.6593 31.0132 5.62107 30.8172 5.59763C30.6059 5.57237 30.3245 5.57142 29.882 5.57142H10.118C9.6755 5.57142 9.39411 5.57237 9.18283 5.59763Z" fill="#525E75"/>
</svg>
