<svg width="40" height="40" viewBox="0 0 40 40" fill="none" xmlns="http://www.w3.org/2000/svg">
<path fill-rule="evenodd" clip-rule="evenodd" d="M11.6338 28.2999C14.0451 26.9121 16.9857 26.1667 20 26.1667C23.0143 26.1667 25.9549 26.9121 28.3662 28.2999C30.7773 29.6874 32.5429 31.6517 33.3499 33.9103C33.4428 34.1704 33.3073 34.4565 33.0472 34.5494C32.7872 34.6423 32.5011 34.5068 32.4082 34.2468C31.6958 32.2527 30.1135 30.4592 27.8674 29.1666C25.6216 27.8741 22.8559 27.1667 20 27.1667C17.1441 27.1667 14.3784 27.8741 12.1326 29.1666C9.88647 30.4592 8.30424 32.2527 7.59184 34.2468C7.49893 34.5068 7.21281 34.6423 6.95277 34.5494C6.69272 34.4565 6.55723 34.1704 6.65013 33.9103C7.45707 31.6517 9.22271 29.6874 11.6338 28.2999Z" fill="#595959"/>
<path fill-rule="evenodd" clip-rule="evenodd" d="M20 7.16675C16.5943 7.16675 13.8333 9.92766 13.8333 13.3334C13.8333 16.7392 16.5943 19.5001 20 19.5001C23.4058 19.5001 26.1667 16.7392 26.1667 13.3334C26.1667 9.92766 23.4058 7.16675 20 7.16675ZM12.8333 13.3334C12.8333 9.37537 16.042 6.16675 20 6.16675C23.9581 6.16675 27.1667 9.37537 27.1667 13.3334C27.1667 17.2915 23.9581 20.5001 20 20.5001C16.042 20.5001 12.8333 17.2915 12.8333 13.3334Z" fill="#595959"/>
</svg>
